<svg width="1200" height="1400" viewBox="0 0 1200 1400" fill="none" xmlns="http://www.w3.org/2000/svg">
<rect width="1200" height="1400" rx="40" fill="#0A0809"/>
<rect width="1200" height="1400" rx="40" fill="url(#paint0_radial)"/>
<rect x="120" y="116" width="960" height="1168" rx="32" fill="#151014" stroke="rgba(214,180,122,0.2)"/>
<path d="M210 1018C210 776.66 405.66 581 647 581H878C938.751 581 988 630.249 988 691V1092C988 1152.75 938.751 1202 878 1202H320C259.249 1202 210 1152.75 210 1092V1018Z" fill="url(#paint1_linear)"/>
<rect x="266" y="222" width="268" height="352" rx="134" fill="url(#paint2_linear)"/>
<rect x="380" y="532" width="344" height="390" rx="168" fill="url(#paint3_linear)"/>
<rect x="736" y="248" width="226" height="74" rx="18" fill="rgba(255,255,255,0.04)"/>
<rect x="736" y="350" width="164" height="30" rx="10" fill="rgba(255,255,255,0.08)"/>
<rect x="736" y="402" width="208" height="30" rx="10" fill="rgba(255,255,255,0.05)"/>
<rect x="736" y="866" width="172" height="52" rx="26" fill="#D6B47A"/>
<rect x="736" y="942" width="224" height="52" rx="26" fill="rgba(255,255,255,0.05)" stroke="rgba(214,180,122,0.16)"/>
<rect x="276" y="1030" width="620" height="94" rx="24" fill="rgba(10,8,9,0.48)"/>
<circle cx="860" cy="188" r="52" fill="rgba(240,201,139,0.85)"/>
<defs>
<radialGradient id="paint0_radial" cx="0" cy="0" r="1" gradientUnits="userSpaceOnUse" gradientTransform="translate(284 162) rotate(49.5093) scale(1415.95 1215.71)">
<stop stop-color="#3A2830"/>
<stop offset="1" stop-color="#0A0809"/>
</radialGradient>
<linearGradient id="paint1_linear" x1="599" y1="581" x2="599" y2="1202" gradientUnits="userSpaceOnUse">
<stop stop-color="#251B20"/>
<stop offset="1" stop-color="#171114"/>
</linearGradient>
<linearGradient id="paint2_linear" x1="400" y1="222" x2="400" y2="574" gradientUnits="userSpaceOnUse">
<stop stop-color="#5A434C"/>
<stop offset="1" stop-color="#2A1E24"/>
</linearGradient>
<linearGradient id="paint3_linear" x1="552" y1="532" x2="552" y2="922" gradientUnits="userSpaceOnUse">
<stop stop-color="#3F2E35"/>
<stop offset="1" stop-color="#20171B"/>
</linearGradient>
</defs>
</svg>
